<svg id="main_logo" data-name="main logo" xmlns="http://www.w3.org/2000/svg" xmlns:xlink="http://www.w3.org/1999/xlink" width="250" height="69.06" viewBox="0 0 250 69.06">
  <defs>
    <clipPath id="clip-path">
      <rect id="Rectangle_1" data-name="Rectangle 1" width="250" height="69.06" fill="none"/>
    </clipPath>
  </defs>
  <g id="Group_1" data-name="Group 1" clip-path="url(#clip-path)">
    <path id="Path_1" data-name="Path 1" d="M193.783,46.429a14.643,14.643,0,0,1,1.857.152,10.7,10.7,0,0,1,2.216.546,6.055,6.055,0,0,1,1.84,1.039,2.083,2.083,0,0,1,.766,1.669,2.732,2.732,0,0,1-.612,1.755,2.025,2.025,0,0,1-1.67.768,3.315,3.315,0,0,1-1.005-.154c-.33-.1-.67-.22-1.023-.358a10.383,10.383,0,0,0-1.124-.358,5.633,5.633,0,0,0-1.381-.151,3.443,3.443,0,0,0-1.941.56,1.855,1.855,0,0,0-.851,1.653,1.49,1.49,0,0,0,.834,1.362,10.344,10.344,0,0,0,2.112.87q1.277.392,2.743.836a10.952,10.952,0,0,1,2.742,1.259,6.784,6.784,0,0,1,2.113,2.165,6.676,6.676,0,0,1,.834,3.558,7.578,7.578,0,0,1-.7,3.306,7.462,7.462,0,0,1-1.891,2.489,8.469,8.469,0,0,1-2.777,1.568,10.273,10.273,0,0,1-3.355.544,23.223,23.223,0,0,1-2.4-.152,14.384,14.384,0,0,1-2.725-.564,6.6,6.6,0,0,1-2.232-1.157,2.393,2.393,0,0,1-.919-1.943,2.521,2.521,0,0,1,.614-1.7,2.077,2.077,0,0,1,1.669-.715,4.2,4.2,0,0,1,1.26.2q.647.206,1.362.458c.477.172.978.324,1.5.462a6.362,6.362,0,0,0,1.6.2,3.637,3.637,0,0,0,2.607-.834,2.784,2.784,0,0,0,.869-2.1,1.763,1.763,0,0,0-.836-1.568,8.415,8.415,0,0,0-2.112-.937q-1.279-.391-2.743-.8a12.366,12.366,0,0,1-2.743-1.125,6.285,6.285,0,0,1-2.112-1.906,5.418,5.418,0,0,1-.835-3.17,7.42,7.42,0,0,1,.682-3.238,7.212,7.212,0,0,1,1.839-2.418,8.484,8.484,0,0,1,2.692-1.532,9.548,9.548,0,0,1,3.237-.547" transform="translate(-101.64 -25.477)" fill="#161615"/>
    <path id="Path_2" data-name="Path 2" d="M224.126,63.846a4.24,4.24,0,0,1-.17-.58,3.142,3.142,0,0,1-.068-.681,1.634,1.634,0,0,1,.22-.851,2.6,2.6,0,0,1,.562-.664,2.55,2.55,0,0,1,.75-.445,2.236,2.236,0,0,1,.784-.153,2.508,2.508,0,0,1,1.516.459,2.723,2.723,0,0,1,.936,1.278l3.374,9.235,3.611-9.235a2.726,2.726,0,0,1,.937-1.278,2.505,2.505,0,0,1,1.516-.459,2.246,2.246,0,0,1,.784.153,2.541,2.541,0,0,1,.749.445,2.612,2.612,0,0,1,.564.664,1.643,1.643,0,0,1,.22.851,2.825,2.825,0,0,1-.239,1.261l-8.211,20.442a4.052,4.052,0,0,1-.869,1.365,1.935,1.935,0,0,1-1.448.578,2.539,2.539,0,0,1-1.908-.665,2.035,2.035,0,0,1-.647-1.447,3.119,3.119,0,0,1,.084-.732,4.882,4.882,0,0,1,.223-.7l2.146-5.316Z" transform="translate(-122.853 -33.183)" fill="#161615"/>
    <path id="Path_3" data-name="Path 3" d="M263.146,62.949a2.83,2.83,0,0,1,.681-1.977,2.291,2.291,0,0,1,1.773-.749,2.345,2.345,0,0,1,1.533.476,2.083,2.083,0,0,1,.717,1.329,4.54,4.54,0,0,1,1.857-1.5,7.052,7.052,0,0,1,2.879-.512,7.914,7.914,0,0,1,2.674.445,5.87,5.87,0,0,1,2.13,1.294,6.077,6.077,0,0,1,1.4,2.078,7.2,7.2,0,0,1,.512,2.793v9.4a2.82,2.82,0,0,1-.681,1.976,2.467,2.467,0,0,1-3.543,0,2.825,2.825,0,0,1-.681-1.976V67.481a3.216,3.216,0,0,0-.938-2.557,3.315,3.315,0,0,0-2.265-.817,2.851,2.851,0,0,0-2.334.971,3.65,3.65,0,0,0-.8,2.4v8.551a2.824,2.824,0,0,1-.681,1.976,2.468,2.468,0,0,1-3.545,0,2.823,2.823,0,0,1-.681-1.976Z" transform="translate(-144.394 -32.933)" fill="#161615"/>
    <path id="Path_4" data-name="Path 4" d="M315.813,59.991h0a6.594,6.594,0,0,0-.239-1.755,5.008,5.008,0,0,0-.715-1.551,3.825,3.825,0,0,0-1.193-1.107,3.282,3.282,0,0,0-1.7-.425,3.026,3.026,0,0,0-1.67.458,4.051,4.051,0,0,0-1.192,1.177,5.355,5.355,0,0,0-.716,1.6,6.793,6.793,0,0,0-.238,1.771,6.656,6.656,0,0,0,.238,1.737,5.381,5.381,0,0,0,.716,1.6,3.868,3.868,0,0,0,1.192,1.158,3.106,3.106,0,0,0,1.67.444,3.14,3.14,0,0,0,1.738-.461,3.963,3.963,0,0,0,1.194-1.191,5.245,5.245,0,0,0,.7-1.652,7.755,7.755,0,0,0,.222-1.807m4.906,6.678a2.817,2.817,0,0,1-.681,1.976,2.283,2.283,0,0,1-1.772.751,2.33,2.33,0,0,1-2.453-2.047,4.208,4.208,0,0,1-1.959,1.69,6.265,6.265,0,0,1-2.538.56,7.1,7.1,0,0,1-3.339-.783,8.007,8.007,0,0,1-2.557-2.1,9.64,9.64,0,0,1-1.618-2.964,10.459,10.459,0,0,1-.562-3.392,12.892,12.892,0,0,1,.494-3.542,9.749,9.749,0,0,1,1.483-3.1,7.831,7.831,0,0,1,2.471-2.216,6.815,6.815,0,0,1,3.458-.853,7,7,0,0,1,4.668,1.7V45.679a2.824,2.824,0,0,1,.681-1.976,2.469,2.469,0,0,1,3.543,0,2.826,2.826,0,0,1,.681,1.976Z" transform="translate(-166.394 -23.57)" fill="#161615"/>
    <path id="Path_5" data-name="Path 5" d="M358.229,67.855h0a4.66,4.66,0,0,0-1.192-2.691,3.933,3.933,0,0,0-5.4.033,4.43,4.43,0,0,0-1.209,2.658Zm-7.7,3.271a3.657,3.657,0,0,0,1.584,2.692,5.471,5.471,0,0,0,3.05.851,4.855,4.855,0,0,0,1.756-.307,11.517,11.517,0,0,0,1.481-.681q.682-.374,1.261-.682a2.321,2.321,0,0,1,1.056-.306,1.863,1.863,0,0,1,1.4.664,2.107,2.107,0,0,1,.612,1.449,2.2,2.2,0,0,1-.732,1.532,6.933,6.933,0,0,1-1.89,1.329,12.738,12.738,0,0,1-2.574.938,11.38,11.38,0,0,1-2.81.358,9.527,9.527,0,0,1-3.765-.716,8.625,8.625,0,0,1-2.9-1.976,8.881,8.881,0,0,1-1.874-2.982,10.355,10.355,0,0,1-.663-3.765,10.132,10.132,0,0,1,.647-3.594,9.658,9.658,0,0,1,1.806-3.033A8.737,8.737,0,0,1,350.75,60.8a8.069,8.069,0,0,1,3.561-.786,7.931,7.931,0,0,1,3.629.819,9.327,9.327,0,0,1,2.777,2.112,9.685,9.685,0,0,1,1.789,2.879,8.4,8.4,0,0,1,.63,3.117,2.315,2.315,0,0,1-.511,1.636,2.151,2.151,0,0,1-1.636.545Z" transform="translate(-189.595 -32.933)" fill="#161615"/>
    <path id="Path_6" data-name="Path 6" d="M399.153,63.562a2.29,2.29,0,0,1-.562,1.517,1.813,1.813,0,0,1-1.449.665,2.25,2.25,0,0,1-.852-.222c-.34-.147-.7-.311-1.09-.5a12.637,12.637,0,0,0-1.21-.492,3.729,3.729,0,0,0-1.243-.223,2.1,2.1,0,0,0-1.175.324,1.152,1.152,0,0,0-.495,1.039,1.135,1.135,0,0,0,.631.971,9.9,9.9,0,0,0,1.584.768q.953.374,2.045.8a10.472,10.472,0,0,1,2.043,1.072,5.856,5.856,0,0,1,1.584,1.585A4.092,4.092,0,0,1,399.6,73.2a5.308,5.308,0,0,1-.495,2.283,5.245,5.245,0,0,1-1.414,1.821,6.9,6.9,0,0,1-2.2,1.211,8.753,8.753,0,0,1-2.879.443,10.062,10.062,0,0,1-2.232-.274,9.76,9.76,0,0,1-2.232-.782,6.251,6.251,0,0,1-1.7-1.211,2.129,2.129,0,0,1-.681-1.514,1.941,1.941,0,0,1,.137-.648,2.532,2.532,0,0,1,.408-.715,2.56,2.56,0,0,1,.665-.579,1.7,1.7,0,0,1,.9-.24,3.072,3.072,0,0,1,1.276.256,12.014,12.014,0,0,1,1.108.58,8.479,8.479,0,0,0,1.192.58,4.088,4.088,0,0,0,1.5.254,2.4,2.4,0,0,0,1.533-.357,1.305,1.305,0,0,0,.409-1.039,1.12,1.12,0,0,0-.631-.938,9.99,9.99,0,0,0-1.583-.766q-.955-.373-2.045-.8a10.237,10.237,0,0,1-2.044-1.076,5.713,5.713,0,0,1-1.584-1.6,4.172,4.172,0,0,1-.63-2.351,5.352,5.352,0,0,1,.494-2.334,5.465,5.465,0,0,1,1.38-1.807,6.185,6.185,0,0,1,2.1-1.175,8.3,8.3,0,0,1,2.674-.411,9.968,9.968,0,0,1,1.994.223,9,9,0,0,1,1.993.647,4.854,4.854,0,0,1,1.533,1.09,2.264,2.264,0,0,1,.613,1.585" transform="translate(-211.676 -32.933)" fill="#161615"/>
    <path id="Path_7" data-name="Path 7" d="M419.964,62.949a2.83,2.83,0,0,1,.681-1.977,2.29,2.29,0,0,1,1.773-.749,2,2,0,0,1,2.249,1.838,5.9,5.9,0,0,1,4.565-2.044,6.2,6.2,0,0,1,5.077,2.489,6.963,6.963,0,0,1,2.469-1.841,6.7,6.7,0,0,1,2.709-.648,8.224,8.224,0,0,1,2.726.428,5.61,5.61,0,0,1,3.492,3.322,7.639,7.639,0,0,1,.494,2.86v9.4a2.82,2.82,0,0,1-.681,1.976,2.467,2.467,0,0,1-3.544,0,2.817,2.817,0,0,1-.682-1.976V67.481a3.721,3.721,0,0,0-.766-2.456,2.589,2.589,0,0,0-2.1-.918,2.623,2.623,0,0,0-2.128.918,3.707,3.707,0,0,0-.767,2.456v8.551a2.818,2.818,0,0,1-.682,1.976,2.466,2.466,0,0,1-3.543,0,2.817,2.817,0,0,1-.683-1.976V67.481a3.719,3.719,0,0,0-.766-2.456,2.988,2.988,0,0,0-4.31,0,4.036,4.036,0,0,0-.682,2.456v8.551a2.824,2.824,0,0,1-.68,1.976,2.468,2.468,0,0,1-3.545,0,2.822,2.822,0,0,1-.681-1.976Z" transform="translate(-230.443 -32.933)" fill="#161615"/>
    <path id="Path_8" data-name="Path 8" d="M491.2,64.517h0a3.238,3.238,0,0,0-1.755.458,3.976,3.976,0,0,0-1.21,1.176,5.072,5.072,0,0,0-.7,1.6,7.215,7.215,0,0,0-.221,1.77,6.763,6.763,0,0,0,.238,1.771,5.142,5.142,0,0,0,.715,1.585,3.858,3.858,0,0,0,1.211,1.141,3.557,3.557,0,0,0,3.44,0,3.867,3.867,0,0,0,1.209-1.141,5.123,5.123,0,0,0,.716-1.585,6.8,6.8,0,0,0,.239-1.771,7.3,7.3,0,0,0-.222-1.77,5.1,5.1,0,0,0-.7-1.6,3.986,3.986,0,0,0-1.21-1.176,3.232,3.232,0,0,0-1.754-.458m0-4.5a8.06,8.06,0,0,1,3.56.786,8.734,8.734,0,0,1,2.777,2.094,9.688,9.688,0,0,1,1.806,3.033,10.128,10.128,0,0,1,.648,3.594,10.455,10.455,0,0,1-.631,3.63,9.23,9.23,0,0,1-1.789,3.015,8.578,8.578,0,0,1-12.742,0,9.208,9.208,0,0,1-1.789-3.015,10.447,10.447,0,0,1-.63-3.63,10.129,10.129,0,0,1,.648-3.594,9.654,9.654,0,0,1,1.806-3.033,8.728,8.728,0,0,1,2.777-2.094,8.061,8.061,0,0,1,3.561-.786" transform="translate(-264.706 -32.933)" fill="#161615"/>
    <path id="Path_9" data-name="Path 9" d="M536.717,63.562a2.29,2.29,0,0,1-.562,1.517,1.813,1.813,0,0,1-1.448.665,2.256,2.256,0,0,1-.852-.222c-.341-.147-.7-.311-1.09-.5a12.727,12.727,0,0,0-1.21-.492,3.727,3.727,0,0,0-1.243-.223,2.1,2.1,0,0,0-1.175.324,1.152,1.152,0,0,0-.495,1.039,1.135,1.135,0,0,0,.631.971,9.911,9.911,0,0,0,1.584.768q.953.374,2.045.8a10.491,10.491,0,0,1,2.044,1.072,5.851,5.851,0,0,1,1.583,1.585,4.092,4.092,0,0,1,.631,2.334,5.321,5.321,0,0,1-.494,2.283,5.255,5.255,0,0,1-1.414,1.821,6.9,6.9,0,0,1-2.2,1.211,8.754,8.754,0,0,1-2.879.443,10.065,10.065,0,0,1-2.231-.274,9.754,9.754,0,0,1-2.232-.782,6.232,6.232,0,0,1-1.7-1.211,2.127,2.127,0,0,1-.682-1.514,1.952,1.952,0,0,1,.137-.648,2.55,2.55,0,0,1,1.072-1.295,1.7,1.7,0,0,1,.9-.24,3.075,3.075,0,0,1,1.277.256,12.063,12.063,0,0,1,1.107.58,8.525,8.525,0,0,0,1.192.58,4.088,4.088,0,0,0,1.5.254,2.4,2.4,0,0,0,1.533-.357,1.305,1.305,0,0,0,.409-1.039,1.12,1.12,0,0,0-.63-.938,10,10,0,0,0-1.584-.766q-.954-.373-2.045-.8a10.224,10.224,0,0,1-2.044-1.076,5.7,5.7,0,0,1-1.585-1.6,4.172,4.172,0,0,1-.63-2.351,5.345,5.345,0,0,1,.494-2.334,5.47,5.47,0,0,1,1.38-1.807,6.181,6.181,0,0,1,2.1-1.175,8.3,8.3,0,0,1,2.673-.411,9.963,9.963,0,0,1,1.994.223,9,9,0,0,1,1.994.647,4.854,4.854,0,0,1,1.533,1.09,2.264,2.264,0,0,1,.612,1.585" transform="translate(-287.161 -32.933)" fill="#161615"/>
    <path id="Path_10" data-name="Path 10" d="M129.913,73.993h4.529V58.319H120.519a19.087,19.087,0,0,1,9.394,15.674" transform="translate(-66.131 -32.001)" fill="#009289"/>
    <path id="Path_11" data-name="Path 11" d="M58.319,23.707c5.453-.007,12.608-.019,15.672-.035V0H58.319Z" transform="translate(-32.001 0.001)" fill="#009289"/>
    <path id="Path_12" data-name="Path 12" d="M7.043,67.049c-.04-.066-.077-.131-.107-.191a19.1,19.1,0,0,1-2.4-8.539H0V73.993H13.934a19.052,19.052,0,0,1-6.891-6.943" transform="translate(0 -32.001)" fill="#009289"/>
    <path id="Path_13" data-name="Path 13" d="M73.991,98.855c-5.421.005-12.558.015-15.672.025v23.673H73.991Z" transform="translate(-32.001 -54.244)" fill="#009289"/>
    <path id="Path_14" data-name="Path 14" d="M20.987,97.2H14.6a17.323,17.323,0,0,0,17.265,16.823h.593V107.49h-.461A10.846,10.846,0,0,1,20.987,97.2" transform="translate(-8.01 -53.335)" fill="#dd1b1e"/>
    <path id="Path_15" data-name="Path 15" d="M108.607,33.715h6.45A17.323,17.323,0,0,0,97.792,16.894H97.2v6.554h.4a10.855,10.855,0,0,1,11,10.267" transform="translate(-53.335 -9.27)" fill="#dd1b1e"/>
    <path id="Path_16" data-name="Path 16" d="M103.138,44.606H106.2a8.455,8.455,0,0,0-8.6-7.865h-.4v7.086l.617.016a19.049,19.049,0,0,1,5.321.763" transform="translate(-53.335 -20.161)" fill="#dd1b1e"/>
    <path id="Path_17" data-name="Path 17" d="M37.233,97.2H34.084a8.448,8.448,0,0,0,8.6,7.888h.461V97.981l-.617-.017a18.984,18.984,0,0,1-5.3-.764" transform="translate(-18.703 -53.335)" fill="#dd1b1e"/>
    <path id="Path_18" data-name="Path 18" d="M68.406,46.466a17.244,17.244,0,0,0-5.254-.815l-.912-.024c-.115.007-.407.01-1.264.014-2.885.017-13.189.032-16.575.035l-.971,0H43.14V36.741h-.461a8.656,8.656,0,0,0-7.868,4.881,7.81,7.81,0,0,0-.741,3.325c0,.058,0,.117,0,.175v.02a8.13,8.13,0,0,0,.089,1,8.537,8.537,0,0,0,8.516,7L62.962,53.1a10.887,10.887,0,0,1,10.925,9.3,10.3,10.3,0,0,1,.083,1.109l0,.06c0,.046,0,.091,0,.136a10.178,10.178,0,0,1-.717,3.756,11.071,11.071,0,0,1-10.294,6.848h-.4v6.532h.593A17.337,17.337,0,0,0,80.421,63.817l0-.241v-.653c0-.16,0-.317-.006-.474A17.28,17.28,0,0,0,68.406,46.466" transform="translate(-18.695 -20.161)" fill="#dd1b1e"/>
    <path id="Path_19" data-name="Path 19" d="M14.59,35.293A17.266,17.266,0,0,0,16.8,43.284l.011.025c.011.022.051.09.051.09A17.256,17.256,0,0,0,31.854,52.09l19.722-.018.289,0v8.951h.4a8.733,8.733,0,0,0,7.448-4.1,7.9,7.9,0,0,0,1.16-4.106c0-.076,0-.152,0-.227a7.973,7.973,0,0,0-.092-1,8.542,8.542,0,0,0-8.512-6.981l-20.283.046a10.878,10.878,0,0,1-10.928-9.325,9.842,9.842,0,0,1-.08-1.117v-.055c0-.036,0-.072,0-.107a10.209,10.209,0,0,1,.736-3.807,10.686,10.686,0,0,1,3.982-4.892,11.221,11.221,0,0,1,6.294-1.909h.461V16.894h-.593a17.315,17.315,0,0,0-17.267,16.93v.214l-.006.783c0,.156,0,.314.008.472" transform="translate(-8.001 -9.27)" fill="#dd1b1e"/>
    <path id="Path_20" data-name="Path 20" d="M189.794,123.168c.159,0,.353,0,.583.017s.479.031.741.062.526.073.789.126a4.07,4.07,0,0,1,.708.2c.116.051.184.1.2.158a.282.282,0,0,1,0,.189l-.093.442a.5.5,0,0,1-.088.143c-.037.04-.107.05-.213.031-.346-.053-.754-.1-1.221-.149a13.47,13.47,0,0,0-1.412-.073,2.632,2.632,0,0,0-1.449.348,2.261,2.261,0,0,0-.82.937,4.13,4.13,0,0,0-.362,1.372,16.438,16.438,0,0,0-.079,1.645,12.2,12.2,0,0,0,.094,1.53,3.959,3.959,0,0,0,.387,1.309,2.3,2.3,0,0,0,.828.906,2.6,2.6,0,0,0,1.4.338,13.627,13.627,0,0,0,1.387-.069c.442-.048.852-.1,1.231-.15.115-.022.191-.01.227.038a.614.614,0,0,1,.088.15l.078.41a.38.38,0,0,1,.008.2q-.023.08-.18.143a3.334,3.334,0,0,1-.678.2c-.263.053-.528.094-.8.125s-.523.056-.764.07-.441.024-.6.024a4.165,4.165,0,0,1-2.025-.432,3.284,3.284,0,0,1-1.228-1.16,4.611,4.611,0,0,1-.607-1.67,11.825,11.825,0,0,1-.159-1.972,13.417,13.417,0,0,1,.151-2.025,5.034,5.034,0,0,1,.584-1.742,3.274,3.274,0,0,1,1.219-1.219,4.016,4.016,0,0,1,2.065-.467" transform="translate(-101.939 -67.585)" fill="#161615"/>
    <path id="Path_21" data-name="Path 21" d="M209.257,133.174h0a8.989,8.989,0,0,0-.079-1.264,2.228,2.228,0,0,0-.308-.9,1.426,1.426,0,0,0-.631-.534,2.573,2.573,0,0,0-1.047-.182,2.318,2.318,0,0,0-.993.182,1.389,1.389,0,0,0-.6.541,2.4,2.4,0,0,0-.3.9,10.108,10.108,0,0,0,0,2.515,2.4,2.4,0,0,0,.3.9,1.386,1.386,0,0,0,.6.542,2.327,2.327,0,0,0,.993.181,2.654,2.654,0,0,0,1.047-.174,1.374,1.374,0,0,0,.631-.524,2.248,2.248,0,0,0,.308-.9,9.169,9.169,0,0,0,.079-1.283m1.213-.1a13.3,13.3,0,0,1-.077,1.419,3.6,3.6,0,0,1-.4,1.324,2.493,2.493,0,0,1-.984.979,3.7,3.7,0,0,1-1.824.377,3.487,3.487,0,0,1-1.769-.377,2.472,2.472,0,0,1-.951-.972,3.508,3.508,0,0,1-.386-1.324c-.046-.488-.07-.964-.07-1.426a9.094,9.094,0,0,1,.094-1.244,3.615,3.615,0,0,1,.416-1.261,2.633,2.633,0,0,1,.953-.97,3.26,3.26,0,0,1,1.713-.386,3.778,3.778,0,0,1,1.739.338,2.533,2.533,0,0,1,1,.882,3.108,3.108,0,0,1,.449,1.237,9.627,9.627,0,0,1,.1,1.4" transform="translate(-111.943 -70.901)" fill="#161615"/>
    <path id="Path_22" data-name="Path 22" d="M232.765,137.046h-.671a.239.239,0,0,1-.272-.268v-4.745a5.163,5.163,0,0,0-.054-.819,1.322,1.322,0,0,0-.2-.537.769.769,0,0,0-.375-.29,1.742,1.742,0,0,0-.6-.088,2.194,2.194,0,0,0-.62.1c-.226.07-.454.151-.684.245s-.45.195-.658.3-.382.2-.519.269a2.779,2.779,0,0,1,.025.316c0,.147.007.326.007.534v4.714a.238.238,0,0,1-.272.268h-.7c-.161,0-.241-.089-.241-.268l.015-4.854a2.5,2.5,0,0,0-.236-1.2,1,1,0,0,0-.962-.426,2.2,2.2,0,0,0-.584.088,6.3,6.3,0,0,0-.653.219c-.228.089-.449.186-.671.293s-.42.205-.6.3v5.579a.237.237,0,0,1-.269.268h-.662q-.251,0-.251-.268v-7.139q0-.269.251-.269h.647c.189,0,.284.09.284.269v.55h.018c.157-.094.333-.2.527-.314a5.856,5.856,0,0,1,.631-.324,4.614,4.614,0,0,1,.7-.244,2.918,2.918,0,0,1,.742-.094,2.627,2.627,0,0,1,1.35.29,1.62,1.62,0,0,1,.685.843,10.872,10.872,0,0,1,1.334-.78,3.424,3.424,0,0,1,1.523-.352,2.933,2.933,0,0,1,1.192.2,1.552,1.552,0,0,1,.686.577,2.241,2.241,0,0,1,.315.89,7.629,7.629,0,0,1,.08,1.15v4.745a.239.239,0,0,1-.272.268" transform="translate(-121.852 -70.902)" fill="#161615"/>
    <path id="Path_23" data-name="Path 23" d="M255.514,129.334h0a9.608,9.608,0,0,0-.087-1.4,2.69,2.69,0,0,0-.293-.932,1.242,1.242,0,0,0-.537-.514,1.929,1.929,0,0,0-.822-.157,7.685,7.685,0,0,0-1.108.088,8.692,8.692,0,0,0-1.2.261v5.262c.306.054.635.092.989.118s.7.041,1.037.041a3.77,3.77,0,0,0,.838-.087,1.206,1.206,0,0,0,.641-.38,2.012,2.012,0,0,0,.4-.838,5.971,5.971,0,0,0,.143-1.461m1.261-.15a8.846,8.846,0,0,1-.149,1.725,3.2,3.2,0,0,1-.52,1.261,2.356,2.356,0,0,1-.993.781,3.985,3.985,0,0,1-1.569.268c-.242,0-.5-.009-.764-.024s-.533-.038-.8-.07-.51-.072-.742-.119a4.874,4.874,0,0,1-.614-.166.465.465,0,0,1-.324-.276,1.259,1.259,0,0,1-.056-.356v-9.945a.337.337,0,0,1,.055-.229.294.294,0,0,1,.209-.056h.654a.3.3,0,0,1,.226.063.345.345,0,0,1,.055.222v3.419l.015.032a7.36,7.36,0,0,1,1.265-.37,5.459,5.459,0,0,1,.98-.1,3.655,3.655,0,0,1,1.519.275,2.2,2.2,0,0,1,.94.794,3.38,3.38,0,0,1,.474,1.247,8.926,8.926,0,0,1,.134,1.624" transform="translate(-137.317 -66.932)" fill="#161615"/>
    <path id="Path_24" data-name="Path 24" d="M270.022,133.651h0c0,.179-.085.268-.253.268h-.647q-.282,0-.283-.268v-7.14c0-.116.023-.189.07-.222a.39.39,0,0,1,.212-.046h.647c.168,0,.253.09.253.269Zm.094-9.457a1.01,1.01,0,0,1-.117.5c-.08.135-.266.2-.56.2s-.495-.07-.567-.212a1.056,1.056,0,0,1-.111-.5.814.814,0,0,1,.134-.488.625.625,0,0,1,.543-.192c.284,0,.468.061.552.181a.859.859,0,0,1,.126.5" transform="translate(-147.475 -67.775)" fill="#161615"/>
    <path id="Path_25" data-name="Path 25" d="M282.1,137.046h-.663a.237.237,0,0,1-.268-.268l.016-4.666a5.29,5.29,0,0,0-.063-.891,1.344,1.344,0,0,0-.212-.558.778.778,0,0,0-.395-.285,2.058,2.058,0,0,0-.607-.078,2.422,2.422,0,0,0-.662.109c-.253.074-.5.159-.756.253s-.489.191-.708.292-.39.181-.5.244v5.579c0,.179-.1.268-.285.268h-.647c-.167,0-.251-.089-.251-.268v-7.139c0-.179.084-.269.251-.269H277a.385.385,0,0,1,.213.046c.048.033.072.106.072.222v.567l.046.014c.127-.085.289-.184.489-.3a6.118,6.118,0,0,1,.669-.331,6.381,6.381,0,0,1,.781-.268,3.255,3.255,0,0,1,.836-.108,2.805,2.805,0,0,1,1.221.22,1.62,1.62,0,0,1,.685.606,2.335,2.335,0,0,1,.308.924,8.9,8.9,0,0,1,.072,1.167v4.649c0,.179-.1.268-.284.268" transform="translate(-151.5 -70.902)" fill="#161615"/>
    <path id="Path_26" data-name="Path 26" d="M295.659,133.651h0c0,.179-.085.268-.252.268h-.647c-.189,0-.283-.089-.283-.268v-7.14c0-.116.023-.189.07-.222a.394.394,0,0,1,.213-.046h.647c.167,0,.252.09.252.269Zm.094-9.457a1.011,1.011,0,0,1-.117.5c-.08.135-.266.2-.561.2s-.495-.07-.567-.212a1.057,1.057,0,0,1-.111-.5.814.814,0,0,1,.135-.488.624.624,0,0,1,.543-.192c.284,0,.467.061.552.181a.856.856,0,0,1,.125.5" transform="translate(-161.542 -67.775)" fill="#161615"/>
    <path id="Path_27" data-name="Path 27" d="M307.741,137.046h-.663a.238.238,0,0,1-.269-.268l.016-4.666a5.3,5.3,0,0,0-.063-.891,1.345,1.345,0,0,0-.212-.558.778.778,0,0,0-.395-.285,2.062,2.062,0,0,0-.607-.078,2.419,2.419,0,0,0-.662.109c-.253.074-.5.159-.756.253s-.489.191-.709.292-.39.181-.5.244v5.579q0,.268-.284.268h-.647c-.167,0-.251-.089-.251-.268v-7.139c0-.179.084-.269.251-.269h.647a.381.381,0,0,1,.212.046c.049.033.072.106.072.222v.567l.047.014c.127-.085.288-.184.489-.3a6.165,6.165,0,0,1,.67-.331,6.393,6.393,0,0,1,.78-.268,3.265,3.265,0,0,1,.836-.108,2.807,2.807,0,0,1,1.222.22,1.622,1.622,0,0,1,.685.606,2.336,2.336,0,0,1,.308.924,8.98,8.98,0,0,1,.071,1.167v4.649c0,.179-.095.268-.283.268" transform="translate(-165.568 -70.902)" fill="#161615"/>
    <path id="Path_28" data-name="Path 28" d="M320.564,133.105h0a8.79,8.79,0,0,0,.093,1.4,2.741,2.741,0,0,0,.309.931,1.264,1.264,0,0,0,.543.519,1.922,1.922,0,0,0,.819.158,7.092,7.092,0,0,0,1.057-.1,9.449,9.449,0,0,0,1.213-.268v-5.247c-.3-.044-.634-.082-.985-.118a10.013,10.013,0,0,0-1.033-.056,3.205,3.205,0,0,0-.8.094,1.307,1.307,0,0,0-.645.386,1.942,1.942,0,0,0-.426.836,5.626,5.626,0,0,0-.15,1.457m1.978-3.892c.241,0,.493.01.754.031s.52.046.771.078.492.073.723.118.44.1.63.15a.445.445,0,0,1,.329.268,1.139,1.139,0,0,1,.063.362v6.857a6.634,6.634,0,0,1-.094,1.16,1.985,1.985,0,0,1-.408.913,2.023,2.023,0,0,1-.912.6,4.879,4.879,0,0,1-1.6.212c-.2,0-.413,0-.644-.016s-.46-.029-.684-.053-.445-.065-.659-.111a3.276,3.276,0,0,1-.575-.181c-.1-.044-.165-.092-.181-.15a.3.3,0,0,1,.008-.181l.063-.348a.2.2,0,0,1,.126-.172.538.538,0,0,1,.268,0q.5.075,1.118.109c.411.022.778.031,1.1.031a3.949,3.949,0,0,0,.907-.087,1.322,1.322,0,0,0,.567-.276,1,1,0,0,0,.3-.481,2.505,2.505,0,0,0,.086-.7v-.631a7.833,7.833,0,0,1-1.269.37,5.138,5.138,0,0,1-.969.1,3.58,3.58,0,0,1-1.506-.275,2.23,2.23,0,0,1-.937-.8,3.311,3.311,0,0,1-.481-1.244,9.023,9.023,0,0,1-.134-1.624,8.471,8.471,0,0,1,.157-1.711,3.266,3.266,0,0,1,.535-1.268,2.364,2.364,0,0,1,1-.788,3.925,3.925,0,0,1,1.549-.268" transform="translate(-175.208 -70.902)" fill="#161615"/>
    <path id="Path_29" data-name="Path 29" d="M352.178,134.84a2.256,2.256,0,0,1-.244,1.1,2.014,2.014,0,0,1-.662.718,2.838,2.838,0,0,1-.946.394,5.032,5.032,0,0,1-1.1.117q-.3,0-.63-.014c-.22-.012-.438-.031-.653-.063s-.42-.07-.615-.116a3.086,3.086,0,0,1-.512-.165.279.279,0,0,1-.174-.326l.062-.326c.022-.1.06-.166.119-.188a.551.551,0,0,1,.228-.015c.158.022.34.041.543.062s.411.039.616.056.4.029.583.039.344.016.481.016a2.235,2.235,0,0,0,1.268-.277,1,1,0,0,0,.387-.878,2.188,2.188,0,0,0-.063-.575.706.706,0,0,0-.237-.371,1.245,1.245,0,0,0-.473-.222c-.2-.051-.457-.1-.773-.157a10.157,10.157,0,0,1-1.032-.206,3.061,3.061,0,0,1-.874-.362,1.861,1.861,0,0,1-.608-.616,1.92,1.92,0,0,1-.228-1,2.019,2.019,0,0,1,.733-1.684,3.168,3.168,0,0,1,2.009-.574q.238,0,.536.014c.2.013.407.029.622.056a6.145,6.145,0,0,1,.639.112,4.054,4.054,0,0,1,.568.164.26.26,0,0,1,.157.331l-.063.38a.2.2,0,0,1-.134.157.736.736,0,0,1-.276.017q-.489-.051-1.025-.1a10.212,10.212,0,0,0-1.04-.057,1.92,1.92,0,0,0-1.2.269,1.1,1.1,0,0,0-.315.884,1.173,1.173,0,0,0,.079.471.658.658,0,0,0,.261.285,1.748,1.748,0,0,0,.5.18c.211.047.475.1.792.151.348.051.685.118,1.012.2a2.581,2.581,0,0,1,.862.373,1.816,1.816,0,0,1,.594.661,2.286,2.286,0,0,1,.222,1.088" transform="translate(-190.21 -70.902)" fill="#161615"/>
    <path id="Path_30" data-name="Path 30" d="M367.568,136.81a3.693,3.693,0,0,1-1.111.284,11.336,11.336,0,0,1-1.269.078,3.713,3.713,0,0,1-1.664-.315,2.345,2.345,0,0,1-.961-.866,3.278,3.278,0,0,1-.441-1.279,11.092,11.092,0,0,1-.1-1.558,10.208,10.208,0,0,1,.1-1.467,3.262,3.262,0,0,1,.441-1.261,2.449,2.449,0,0,1,.961-.883,3.552,3.552,0,0,1,1.664-.33q.236,0,.551.014c.209.013.423.029.639.056a6.3,6.3,0,0,1,.638.112,2.9,2.9,0,0,1,.568.181.213.213,0,0,1,.149.14.474.474,0,0,1,.007.191l-.063.362a.2.2,0,0,1-.15.157.687.687,0,0,1-.26.017q-.49-.051-1.08-.1c-.394-.037-.731-.057-1.015-.057a2.385,2.385,0,0,0-.9.15,1.24,1.24,0,0,0-.575.481,2.37,2.37,0,0,0-.308.875,8.1,8.1,0,0,0-.093,1.348,9.059,9.059,0,0,0,.093,1.435,2.384,2.384,0,0,0,.316.906,1.212,1.212,0,0,0,.583.481,2.434,2.434,0,0,0,.883.143c.125,0,.28-.008.465-.017s.372-.024.567-.038L366.8,136c.2-.014.378-.033.536-.056a.52.52,0,0,1,.228.017c.057.022.1.084.118.189l.063.331a.276.276,0,0,1-.172.331" transform="translate(-198.647 -70.902)" fill="#161615"/>
    <path id="Path_31" data-name="Path 31" d="M379.066,133.651h0c0,.179-.085.268-.253.268h-.646q-.284,0-.284-.268v-7.14c0-.116.023-.189.07-.222a.4.4,0,0,1,.214-.046h.646c.168,0,.253.09.253.269Zm.094-9.457a1.012,1.012,0,0,1-.118.5c-.08.135-.265.2-.561.2s-.494-.07-.566-.212a1.056,1.056,0,0,1-.111-.5.82.82,0,0,1,.134-.488.624.624,0,0,1,.543-.192c.284,0,.468.061.552.181a.856.856,0,0,1,.126.5" transform="translate(-207.31 -67.775)" fill="#161615"/>
    <path id="Path_32" data-name="Path 32" d="M390,132.6h0a4.92,4.92,0,0,0-.071-.825,2.068,2.068,0,0,0-.275-.749,1.536,1.536,0,0,0-.583-.537,2.135,2.135,0,0,0-1.009-.206,2.057,2.057,0,0,0-.875.167,1.469,1.469,0,0,0-.576.464,2.082,2.082,0,0,0-.33.725,4.914,4.914,0,0,0-.142.961Zm1.276.1a1.284,1.284,0,0,1-.117.64.59.59,0,0,1-.577.258H386.14a6.049,6.049,0,0,0,.125,1.184,1.733,1.733,0,0,0,.363.766,1.347,1.347,0,0,0,.639.409,3.293,3.293,0,0,0,.938.118c.159,0,.336-.009.537-.023l.6-.049c.2-.014.391-.033.575-.056s.344-.041.481-.063a.576.576,0,0,1,.244.017c.058.022.1.085.118.189l.063.352a.26.26,0,0,1-.172.319,3.457,3.457,0,0,1-.536.176c-.211.053-.431.1-.662.135s-.463.069-.694.088-.441.034-.63.034a3.693,3.693,0,0,1-1.727-.34,2.411,2.411,0,0,1-.969-.889A3.359,3.359,0,0,1,385,134.69a10.246,10.246,0,0,1-.1-1.473,9.594,9.594,0,0,1,.094-1.269,3.78,3.78,0,0,1,.427-1.309,2.808,2.808,0,0,1,.962-1.018,3.126,3.126,0,0,1,1.717-.408,3.726,3.726,0,0,1,1.624.3,2.4,2.4,0,0,1,.953.787,2.881,2.881,0,0,1,.458,1.119,9.4,9.4,0,0,1,.148,1.276" transform="translate(-211.2 -70.902)" fill="#161615"/>
    <path id="Path_33" data-name="Path 33" d="M408.331,137.046h-.662a.237.237,0,0,1-.268-.268l.016-4.666a5.451,5.451,0,0,0-.062-.891,1.356,1.356,0,0,0-.214-.558.776.776,0,0,0-.395-.285,2.052,2.052,0,0,0-.607-.078,2.422,2.422,0,0,0-.662.109c-.252.074-.5.159-.756.253s-.489.191-.709.292-.389.181-.5.244v5.579c0,.179-.094.268-.285.268h-.645c-.168,0-.252-.089-.252-.268v-7.139c0-.179.083-.269.252-.269h.645a.385.385,0,0,1,.213.046c.048.033.072.106.072.222v.567l.047.014c.127-.085.289-.184.49-.3a6.124,6.124,0,0,1,.669-.331,6.4,6.4,0,0,1,.78-.268,3.255,3.255,0,0,1,.836-.108,2.8,2.8,0,0,1,1.221.22,1.614,1.614,0,0,1,.685.606,2.337,2.337,0,0,1,.309.924,9.058,9.058,0,0,1,.071,1.167v4.649c0,.179-.1.268-.284.268" transform="translate(-220.765 -70.902)" fill="#161615"/>
    <path id="Path_34" data-name="Path 34" d="M425.337,136.81a3.682,3.682,0,0,1-1.112.284,11.318,11.318,0,0,1-1.268.078,3.709,3.709,0,0,1-1.664-.315,2.343,2.343,0,0,1-.962-.866,3.27,3.27,0,0,1-.441-1.279,11.108,11.108,0,0,1-.1-1.558,10.225,10.225,0,0,1,.1-1.467,3.254,3.254,0,0,1,.441-1.261,2.447,2.447,0,0,1,.962-.883,3.547,3.547,0,0,1,1.664-.33c.157,0,.341,0,.55.014s.423.029.639.056a6.32,6.32,0,0,1,.638.112,2.9,2.9,0,0,1,.568.181.212.212,0,0,1,.149.14.475.475,0,0,1,.008.191l-.063.362a.2.2,0,0,1-.151.157.682.682,0,0,1-.259.017q-.49-.051-1.08-.1c-.394-.037-.733-.057-1.016-.057a2.378,2.378,0,0,0-.9.15,1.235,1.235,0,0,0-.575.481,2.361,2.361,0,0,0-.308.875,8.038,8.038,0,0,0-.094,1.348,8.986,8.986,0,0,0,.094,1.435,2.374,2.374,0,0,0,.315.906,1.214,1.214,0,0,0,.583.481,2.44,2.44,0,0,0,.883.143c.126,0,.28-.008.466-.017s.372-.024.565-.038l.592-.049c.2-.014.379-.033.537-.056a.516.516,0,0,1,.227.017c.058.022.1.084.119.189l.063.331a.277.277,0,0,1-.173.331" transform="translate(-230.347 -70.902)" fill="#161615"/>
    <path id="Path_35" data-name="Path 35" d="M439.879,132.6h0a4.9,4.9,0,0,0-.071-.825,2.052,2.052,0,0,0-.275-.749,1.54,1.54,0,0,0-.584-.537,2.137,2.137,0,0,0-1.009-.206,2.054,2.054,0,0,0-.875.167,1.466,1.466,0,0,0-.577.464,2.1,2.1,0,0,0-.331.725,4.974,4.974,0,0,0-.141.961Zm1.276.1a1.282,1.282,0,0,1-.118.64.588.588,0,0,1-.576.258h-4.444a5.91,5.91,0,0,0,.126,1.184,1.735,1.735,0,0,0,.362.766,1.355,1.355,0,0,0,.639.409,3.291,3.291,0,0,0,.937.118c.158,0,.336-.009.536-.023s.4-.032.6-.049.391-.033.575-.056.343-.041.48-.063a.574.574,0,0,1,.244.017c.058.022.1.085.119.189l.062.352a.259.259,0,0,1-.172.319,3.4,3.4,0,0,1-.537.176c-.209.053-.431.1-.662.135s-.462.069-.693.088-.441.034-.631.034a3.694,3.694,0,0,1-1.726-.34,2.411,2.411,0,0,1-.969-.889,3.345,3.345,0,0,1-.433-1.269,10.317,10.317,0,0,1-.1-1.473,9.529,9.529,0,0,1,.094-1.269,3.789,3.789,0,0,1,.426-1.309,2.823,2.823,0,0,1,.962-1.018,3.127,3.127,0,0,1,1.718-.408,3.727,3.727,0,0,1,1.624.3,2.4,2.4,0,0,1,.953.787,2.881,2.881,0,0,1,.458,1.119,9.462,9.462,0,0,1,.149,1.276" transform="translate(-238.568 -70.902)" fill="#161615"/>
    <path id="Path_36" data-name="Path 36" d="M466.331,125.144h0a1.017,1.017,0,0,0-.331-.78,1.132,1.132,0,0,0-.8-.309,1.007,1.007,0,0,0-.5.118.992.992,0,0,0-.34.3,1.384,1.384,0,0,0-.189.394,1.423,1.423,0,0,0-.063.4,1.917,1.917,0,0,0,.173.763,5.073,5.073,0,0,0,.49.861,5.478,5.478,0,0,0,1.11-.749,1.288,1.288,0,0,0,.449-1m.961,6.809h0q-.393-.378-.82-.86c-.283-.319-.559-.645-.826-.977s-.519-.659-.749-.985-.432-.614-.6-.867a5.069,5.069,0,0,0-1.465,1.167,2.257,2.257,0,0,0-.552,1.482,2.122,2.122,0,0,0,.174.906,1.512,1.512,0,0,0,.481.6,2.116,2.116,0,0,0,.716.341,3.4,3.4,0,0,0,.867.109,4.4,4.4,0,0,0,1.363-.228,6.084,6.084,0,0,0,1.411-.686m3.579,2.38a.4.4,0,0,1-.15.118.247.247,0,0,1-.213-.023,6.055,6.055,0,0,1-.552-.3c-.21-.125-.426-.268-.647-.425s-.441-.324-.661-.5-.421-.346-.6-.513a6.829,6.829,0,0,1-1.7.851,5.543,5.543,0,0,1-1.75.3,5.079,5.079,0,0,1-1.315-.166,3.053,3.053,0,0,1-1.089-.52,2.6,2.6,0,0,1-.74-.9,2.884,2.884,0,0,1-.275-1.316,3.13,3.13,0,0,1,.685-1.969,6.2,6.2,0,0,1,1.884-1.561,5.262,5.262,0,0,1-.592-1.111,2.786,2.786,0,0,1-.213-.954,2.484,2.484,0,0,1,.158-.889,2.085,2.085,0,0,1,1.159-1.213,2.361,2.361,0,0,1,.954-.183,2.689,2.689,0,0,1,.906.149,1.991,1.991,0,0,1,1.167,1.073,1.933,1.933,0,0,1,.165.8,2.1,2.1,0,0,1-.576,1.5,7.055,7.055,0,0,1-1.552,1.2q.6.912,1.333,1.822a21.206,21.206,0,0,0,1.5,1.677,6.863,6.863,0,0,0,1.214-1.663,6.319,6.319,0,0,0,.662-2.135.311.311,0,0,1,.078-.164.306.306,0,0,1,.188-.041l.427.016c.1.01.171.043.2.1a.544.544,0,0,1,.038.212,5.86,5.86,0,0,1-.251,1.317,8,8,0,0,1-.505,1.238,9.082,9.082,0,0,1-.639,1.065,5.508,5.508,0,0,1-.67.795c.326.3.676.58,1.048.861a9.8,9.8,0,0,0,1.1.715.371.371,0,0,1,.117.111c.015.032,0,.089-.039.174Z" transform="translate(-253.057 -67.527)" fill="#161615"/>
    <path id="Path_37" data-name="Path 37" d="M500.779,136.81a3.678,3.678,0,0,1-1.112.284,11.32,11.32,0,0,1-1.268.078,3.709,3.709,0,0,1-1.664-.315,2.344,2.344,0,0,1-.962-.866,3.255,3.255,0,0,1-.44-1.279,11.012,11.012,0,0,1-.1-1.558,10.137,10.137,0,0,1,.1-1.467,3.239,3.239,0,0,1,.44-1.261,2.447,2.447,0,0,1,.962-.883,3.547,3.547,0,0,1,1.664-.33q.236,0,.551.014c.21.013.423.029.639.056a6.32,6.32,0,0,1,.638.112,2.881,2.881,0,0,1,.568.181.212.212,0,0,1,.149.14.465.465,0,0,1,.007.191l-.062.362a.2.2,0,0,1-.15.157.686.686,0,0,1-.259.017q-.49-.051-1.08-.1c-.394-.037-.732-.057-1.016-.057a2.378,2.378,0,0,0-.9.15,1.235,1.235,0,0,0-.575.481,2.352,2.352,0,0,0-.308.875,8.089,8.089,0,0,0-.094,1.348,9.043,9.043,0,0,0,.094,1.435,2.382,2.382,0,0,0,.315.906,1.214,1.214,0,0,0,.583.481,2.439,2.439,0,0,0,.883.143c.125,0,.28-.008.465-.017s.372-.024.566-.038l.592-.049q.3-.022.536-.056a.517.517,0,0,1,.228.017c.058.022.1.084.119.189l.062.331a.276.276,0,0,1-.172.331" transform="translate(-271.743 -70.902)" fill="#161615"/>
    <path id="Path_38" data-name="Path 38" d="M515.252,133.341h-2.317a1.83,1.83,0,0,0-1.152.331,1.544,1.544,0,0,0-.425,1.275,1.2,1.2,0,0,0,.259.9,1.446,1.446,0,0,0,.953.237,2.994,2.994,0,0,0,.655-.08,5.118,5.118,0,0,0,.718-.212c.241-.089.474-.186.7-.29s.429-.211.608-.318Zm-.018,2.853a11.9,11.9,0,0,1-1.3.662,4.1,4.1,0,0,1-1.662.315,2.1,2.1,0,0,1-1.64-.551,2.378,2.378,0,0,1-.489-1.624,2.65,2.65,0,0,1,.677-1.993,3.178,3.178,0,0,1,2.254-.655h2.177v-.537a1.491,1.491,0,0,0-.4-1.2,2.346,2.346,0,0,0-1.442-.331c-.147,0-.313,0-.5.01s-.375.015-.575.032l-.6.046c-.2.018-.385.034-.553.056s-.283-.017-.315-.144l-.094-.408a.212.212,0,0,1,.024-.191.58.58,0,0,1,.228-.158,4.49,4.49,0,0,1,.567-.142c.221-.042.451-.075.694-.1s.481-.043.717-.055.449-.014.639-.014a4.56,4.56,0,0,1,1.509.2,1.94,1.94,0,0,1,.857.567,1.787,1.787,0,0,1,.375.885,7.591,7.591,0,0,1,.08,1.15V135.5a2.067,2.067,0,0,0,.025.363.383.383,0,0,0,.078.188.307.307,0,0,0,.165.087,2.416,2.416,0,0,0,.3.039c.179.013.268.079.268.205v.394a.259.259,0,0,1-.063.181.436.436,0,0,1-.253.1,3.387,3.387,0,0,1-.551.046,1.335,1.335,0,0,1-.823-.205,1.068,1.068,0,0,1-.343-.708Z" transform="translate(-279.927 -70.901)" fill="#161615"/>
    <path id="Path_39" data-name="Path 39" d="M533.2,130.535c-.211.041-.441.1-.694.167s-.5.135-.734.2-.453.138-.654.2a3.073,3.073,0,0,0-.442.182v5.564a.238.238,0,0,1-.271.269h-.687q-.255,0-.255-.269v-7.139q0-.269.255-.269h.672q.286,0,.286.269v.644l.033.032a3.341,3.341,0,0,1,.431-.276c.184-.1.387-.2.608-.3s.445-.188.677-.268a6.453,6.453,0,0,1,.647-.181c.093-.019.156-.017.188.01a.339.339,0,0,1,.08.181l.063.662c.03.188-.039.292-.206.314" transform="translate(-290.526 -70.98)" fill="#161615"/>
    <path id="Path_40" data-name="Path 40" d="M544.939,132.6h0a4.959,4.959,0,0,0-.071-.825,2.068,2.068,0,0,0-.276-.749,1.533,1.533,0,0,0-.584-.537,2.134,2.134,0,0,0-1.008-.206,2.057,2.057,0,0,0-.875.167,1.474,1.474,0,0,0-.577.464,2.115,2.115,0,0,0-.33.725,4.871,4.871,0,0,0-.141.961Zm1.276.1a1.29,1.29,0,0,1-.117.64.59.59,0,0,1-.576.258h-4.444a5.946,5.946,0,0,0,.126,1.184,1.731,1.731,0,0,0,.362.766,1.35,1.35,0,0,0,.639.409,3.293,3.293,0,0,0,.938.118c.158,0,.335-.009.536-.023l.6-.049c.2-.014.391-.033.576-.056s.344-.041.48-.063a.574.574,0,0,1,.244.017c.059.022.1.085.119.189l.063.352a.261.261,0,0,1-.173.319,3.422,3.422,0,0,1-.536.176c-.21.053-.431.1-.662.135s-.462.069-.693.088-.441.034-.63.034a3.694,3.694,0,0,1-1.727-.34,2.417,2.417,0,0,1-.969-.889,3.351,3.351,0,0,1-.434-1.269,10.317,10.317,0,0,1-.1-1.473,9.586,9.586,0,0,1,.094-1.269,3.785,3.785,0,0,1,.426-1.309,2.825,2.825,0,0,1,.962-1.018,3.131,3.131,0,0,1,1.719-.408,3.727,3.727,0,0,1,1.624.3,2.4,2.4,0,0,1,.953.787,2.888,2.888,0,0,1,.458,1.119,9.481,9.481,0,0,1,.149,1.276" transform="translate(-296.217 -70.902)" fill="#161615"/>
  </g>
</svg>
